<mxfile host="app.diagrams.net" agent="Mozilla/5.0 (Windows NT 10.0; Win64; x64) AppleWebKit/537.36 (KHTML, like Gecko) Chrome/135.0.0.0 Safari/537.36 Edg/135.0.0.0" version="26.2.6">
  <diagram name="第 1 页" id="JKQPsMnHmBLqoDOGfWem">
    <mxGraphModel dx="996" dy="570" grid="0" gridSize="10" guides="1" tooltips="1" connect="1" arrows="1" fold="1" page="1" pageScale="1" pageWidth="827" pageHeight="1169" math="0" shadow="0">
      <root>
        <mxCell id="0" />
        <mxCell id="1" parent="0" />
        <mxCell id="NaUjv65HHyYSYKV6DVy1-9" style="rounded=0;orthogonalLoop=1;jettySize=auto;html=1;exitX=0.5;exitY=1;exitDx=0;exitDy=0;entryX=0.5;entryY=0;entryDx=0;entryDy=0;endArrow=none;startFill=0;" edge="1" parent="1" source="NaUjv65HHyYSYKV6DVy1-1" target="NaUjv65HHyYSYKV6DVy1-5">
          <mxGeometry relative="1" as="geometry" />
        </mxCell>
        <mxCell id="NaUjv65HHyYSYKV6DVy1-10" style="rounded=0;orthogonalLoop=1;jettySize=auto;html=1;exitX=0.5;exitY=1;exitDx=0;exitDy=0;endArrow=none;startFill=0;" edge="1" parent="1" source="NaUjv65HHyYSYKV6DVy1-1" target="NaUjv65HHyYSYKV6DVy1-7">
          <mxGeometry relative="1" as="geometry" />
        </mxCell>
        <mxCell id="NaUjv65HHyYSYKV6DVy1-11" style="rounded=0;orthogonalLoop=1;jettySize=auto;html=1;exitX=0.5;exitY=1;exitDx=0;exitDy=0;endArrow=none;startFill=0;" edge="1" parent="1" source="NaUjv65HHyYSYKV6DVy1-1" target="NaUjv65HHyYSYKV6DVy1-6">
          <mxGeometry relative="1" as="geometry">
            <Array as="points">
              <mxPoint x="580" y="160" />
            </Array>
          </mxGeometry>
        </mxCell>
        <mxCell id="NaUjv65HHyYSYKV6DVy1-1" value="&lt;font style=&quot;font-size: 17px;&quot;&gt;成绩记录&lt;/font&gt;" style="rounded=0;whiteSpace=wrap;html=1;" vertex="1" parent="1">
          <mxGeometry x="340" y="40" width="100" height="60" as="geometry" />
        </mxCell>
        <mxCell id="NaUjv65HHyYSYKV6DVy1-5" value="&lt;font style=&quot;font-size: 17px;&quot;&gt;地图类型&lt;/font&gt;" style="ellipse;whiteSpace=wrap;html=1;" vertex="1" parent="1">
          <mxGeometry x="160" y="160" width="90" height="70" as="geometry" />
        </mxCell>
        <mxCell id="NaUjv65HHyYSYKV6DVy1-6" value="&lt;span style=&quot;font-size: 17px;&quot;&gt;更新时间&lt;/span&gt;" style="ellipse;whiteSpace=wrap;html=1;" vertex="1" parent="1">
          <mxGeometry x="530" y="160" width="100" height="70" as="geometry" />
        </mxCell>
        <mxCell id="NaUjv65HHyYSYKV6DVy1-7" value="&lt;span style=&quot;font-size: 17px;&quot;&gt;分数&lt;/span&gt;" style="ellipse;whiteSpace=wrap;html=1;" vertex="1" parent="1">
          <mxGeometry x="340" y="160" width="100" height="70" as="geometry" />
        </mxCell>
        <mxCell id="NaUjv65HHyYSYKV6DVy1-16" value="" style="endArrow=none;html=1;rounded=0;" edge="1" parent="1">
          <mxGeometry relative="1" as="geometry">
            <mxPoint x="171" y="208" as="sourcePoint" />
            <mxPoint x="240" y="208" as="targetPoint" />
          </mxGeometry>
        </mxCell>
      </root>
    </mxGraphModel>
  </diagram>
</mxfile>
